<?xml version="1.0" encoding="utf-8"?>
<!-- Generator: Adobe Illustrator 23.0.1, SVG Export Plug-In . SVG Version: 6.00 Build 0)  -->
<svg version="1.1" id="Слой_1" xmlns="http://www.w3.org/2000/svg" xmlns:xlink="http://www.w3.org/1999/xlink" x="0px" y="0px"
	 viewBox="0 0 545 545" style="enable-background:new 0 0 545 545;" xml:space="preserve">
<style type="text/css">
	.st0{fill:none;}
</style>
<path d="M280.97,368.67l46.77-53.3c5-5.7,0.95-14.64-6.63-14.64h-80.27c-7.58,0-11.63,8.94-6.63,14.64L280.97,368.67z"/>
<path d="M280.97,454.01c-23.47,0-42.58-19.1-42.58-42.58v-2.94c0-4.7,3.82-8.51,8.52-8.51c4.7,0,8.52,3.81,8.52,8.51v2.94
	c0,14.09,11.45,25.55,25.54,25.55c14.09,0,25.55-11.46,25.55-25.55v-2.96c0-4.7,3.81-8.51,8.52-8.51c4.7,0,8.52,3.81,8.52,8.51v2.96
	C323.55,434.91,304.45,454.01,280.97,454.01z"/>
<path d="M229.88,419.94c-32.87,0-59.61-26.74-59.61-59.61c0-4.7,3.81-8.52,8.51-8.52c4.7,0,8.52,3.81,8.52,8.52
	c0,23.48,19.1,42.58,42.58,42.58c23.47,0,42.58-19.1,42.58-42.58c0-4.7,3.81-8.52,8.51-8.52c4.71,0,8.52,3.81,8.52,8.52
	C289.49,393.2,262.75,419.94,229.88,419.94z"/>
<path d="M332.07,419.94c-32.87,0-59.61-26.74-59.61-59.61c0-4.7,3.81-8.52,8.51-8.52c4.71,0,8.52,3.81,8.52,8.52
	c0,23.48,19.1,42.58,42.58,42.58s42.58-19.1,42.58-42.58c0-4.7,3.81-8.52,8.51-8.52c4.7,0,8.52,3.81,8.52,8.52
	C391.68,393.2,364.94,419.94,332.07,419.94z"/>
<path d="M204.34,292.21c-32.87,0-59.61-26.74-59.61-59.61c0-32.87,26.74-59.61,59.61-59.61c32.86,0,59.6,26.74,59.6,59.61
	C263.94,265.47,237.2,292.21,204.34,292.21z M204.34,190.02c-23.48,0-42.58,19.1-42.58,42.58s19.1,42.58,42.58,42.58
	c23.47,0,42.58-19.1,42.58-42.58S227.81,190.02,204.34,190.02z"/>
<path d="M213.88,218.49c-7.8-5.26-18.38-3.21-23.65,4.59c-5.26,7.8-3.21,18.39,4.59,23.65c7.8,5.26,18.39,3.21,23.65-4.59
	C223.74,234.34,221.68,223.75,213.88,218.49z"/>
<path d="M367.17,218.48c-7.8-5.26-18.38-3.21-23.65,4.59c-5.26,7.8-3.21,18.38,4.59,23.65c7.8,5.26,18.38,3.21,23.64-4.59
	C377.02,234.34,374.97,223.74,367.17,218.48z"/>
<path class="st0" d="M115.08,205.55l15.12,155.02l85.07,93.43c5.67,4.06,37.13,25.75,79.4,18.11c36.91-6.67,57.79-31.32,62.96-37.81
	c14.62-11.45,29.24-22.9,43.85-34.35l24.58-114.06l-11.34-112.91l-110.6-28.88l-61.44-31.19L115.08,205.55z"/>
<path d="M459.83,98.93c0,32.87-26.74,59.61-59.6,59.61c-32.87,0-59.61-26.74-59.61-59.61 M357.64,98.93
	c0,23.48,19.1,42.58,42.58,42.58c23.47,0,42.58-19.1,42.58-42.58"/>
</svg>
